<svg id="visual" viewBox="0 0 900 600" width="900" height="600" xmlns="http://www.w3.org/2000/svg" xmlns:xlink="http://www.w3.org/1999/xlink" version="1.1"><path d="M0 334L21.5 315C43 296 86 258 128.8 257.5C171.7 257 214.3 294 257.2 306.2C300 318.3 343 305.7 385.8 291C428.7 276.3 471.3 259.7 514.2 241.8C557 224 600 205 642.8 198.5C685.7 192 728.3 198 771.2 219.7C814 241.3 857 278.7 878.5 297.3L900 316L900 0L878.5 0C857 0 814 0 771.2 0C728.3 0 685.7 0 642.8 0C600 0 557 0 514.2 0C471.3 0 428.7 0 385.8 0C343 0 300 0 257.2 0C214.3 0 171.7 0 128.8 0C86 0 43 0 21.5 0L0 0Z" fill="#a8d28c"></path><path d="M0 175L21.5 171.3C43 167.7 86 160.3 128.8 158.8C171.7 157.3 214.3 161.7 257.2 162.3C300 163 343 160 385.8 171.2C428.7 182.3 471.3 207.7 514.2 219.5C557 231.3 600 229.7 642.8 228.2C685.7 226.7 728.3 225.3 771.2 212C814 198.7 857 173.3 878.5 160.7L900 148L900 0L878.5 0C857 0 814 0 771.2 0C728.3 0 685.7 0 642.8 0C600 0 557 0 514.2 0C471.3 0 428.7 0 385.8 0C343 0 300 0 257.2 0C214.3 0 171.7 0 128.8 0C86 0 43 0 21.5 0L0 0Z" fill="#619a53"></path><path d="M0 81L21.5 88C43 95 86 109 128.8 107.2C171.7 105.3 214.3 87.7 257.2 76.2C300 64.7 343 59.3 385.8 69.2C428.7 79 471.3 104 514.2 115.2C557 126.3 600 123.7 642.8 125.5C685.7 127.3 728.3 133.7 771.2 123C814 112.3 857 84.7 878.5 70.8L900 57L900 0L878.5 0C857 0 814 0 771.2 0C728.3 0 685.7 0 642.8 0C600 0 557 0 514.2 0C471.3 0 428.7 0 385.8 0C343 0 300 0 257.2 0C214.3 0 171.7 0 128.8 0C86 0 43 0 21.5 0L0 0Z" fill="#0e651f"></path></svg>