<svg id="visual" viewBox="0 0 900 600" width="900" height="600" xmlns="http://www.w3.org/2000/svg" xmlns:xlink="http://www.w3.org/1999/xlink" version="1.1"><path d="M0 264L21.5 283C43 302 86 340 128.8 340.5C171.7 341 214.3 304 257.2 291.8C300 279.7 343 292.3 385.8 307C428.7 321.7 471.3 338.3 514.2 356.2C557 374 600 393 642.8 399.5C685.7 406 728.3 400 771.2 378.3C814 356.7 857 319.3 878.5 300.7L900 282L900 601L878.5 601C857 601 814 601 771.2 601C728.3 601 685.7 601 642.8 601C600 601 557 601 514.2 601C471.3 601 428.7 601 385.8 601C343 601 300 601 257.2 601C214.3 601 171.7 601 128.8 601C86 601 43 601 21.5 601L0 601Z" fill="#a8d28c"></path><path d="M0 423L21.5 426.7C43 430.3 86 437.7 128.8 439.2C171.7 440.7 214.3 436.3 257.2 435.7C300 435 343 438 385.8 426.8C428.7 415.7 471.3 390.3 514.2 378.5C557 366.7 600 368.3 642.8 369.8C685.7 371.3 728.3 372.7 771.2 386C814 399.3 857 424.7 878.5 437.3L900 450L900 601L878.5 601C857 601 814 601 771.2 601C728.3 601 685.7 601 642.8 601C600 601 557 601 514.2 601C471.3 601 428.7 601 385.8 601C343 601 300 601 257.2 601C214.3 601 171.7 601 128.8 601C86 601 43 601 21.5 601L0 601Z" fill="#619a53"></path><path d="M0 517L21.5 510C43 503 86 489 128.8 490.8C171.7 492.7 214.3 510.3 257.2 521.8C300 533.3 343 538.7 385.8 528.8C428.7 519 471.3 494 514.2 482.8C557 471.7 600 474.3 642.8 472.5C685.7 470.7 728.3 464.3 771.2 475C814 485.7 857 513.3 878.5 527.2L900 541L900 601L878.5 601C857 601 814 601 771.2 601C728.3 601 685.7 601 642.8 601C600 601 557 601 514.2 601C471.3 601 428.7 601 385.8 601C343 601 300 601 257.2 601C214.3 601 171.7 601 128.8 601C86 601 43 601 21.5 601L0 601Z" fill="#0e651f"></path></svg>