<svg id="visual" viewBox="0 0 900 600" width="900" height="600" xmlns="http://www.w3.org/2000/svg" xmlns:xlink="http://www.w3.org/1999/xlink" version="1.1"><path d="M0 435L21.5 432C43 429 86 423 128.8 409.8C171.7 396.7 214.3 376.3 257.2 369C300 361.7 343 367.3 385.8 382.3C428.7 397.3 471.3 421.7 514.2 418.8C557 416 600 386 642.8 385.3C685.7 384.7 728.3 413.3 771.2 418.7C814 424 857 406 878.5 397L900 388L900 601L878.5 601C857 601 814 601 771.2 601C728.3 601 685.7 601 642.8 601C600 601 557 601 514.2 601C471.3 601 428.7 601 385.8 601C343 601 300 601 257.2 601C214.3 601 171.7 601 128.8 601C86 601 43 601 21.5 601L0 601Z" fill="#fa7268"></path><path d="M0 404L21.5 413.8C43 423.7 86 443.3 128.8 444.3C171.7 445.3 214.3 427.7 257.2 429.3C300 431 343 452 385.8 450.5C428.7 449 471.3 425 514.2 417.8C557 410.7 600 420.3 642.8 420.2C685.7 420 728.3 410 771.2 417.3C814 424.7 857 449.3 878.5 461.7L900 474L900 601L878.5 601C857 601 814 601 771.2 601C728.3 601 685.7 601 642.8 601C600 601 557 601 514.2 601C471.3 601 428.7 601 385.8 601C343 601 300 601 257.2 601C214.3 601 171.7 601 128.8 601C86 601 43 601 21.5 601L0 601Z" fill="#ef5f67"></path><path d="M0 456L21.5 455.8C43 455.7 86 455.3 128.8 458.8C171.7 462.3 214.3 469.7 257.2 477.7C300 485.7 343 494.3 385.8 488C428.7 481.7 471.3 460.3 514.2 455.2C557 450 600 461 642.8 470.2C685.7 479.3 728.3 486.7 771.2 492.8C814 499 857 504 878.5 506.5L900 509L900 601L878.5 601C857 601 814 601 771.2 601C728.3 601 685.7 601 642.8 601C600 601 557 601 514.2 601C471.3 601 428.7 601 385.8 601C343 601 300 601 257.2 601C214.3 601 171.7 601 128.8 601C86 601 43 601 21.5 601L0 601Z" fill="#e34c67"></path><path d="M0 506L21.5 506.8C43 507.7 86 509.3 128.8 505.8C171.7 502.3 214.3 493.7 257.2 493.2C300 492.7 343 500.3 385.8 502C428.7 503.7 471.3 499.3 514.2 501.2C557 503 600 511 642.8 518.8C685.7 526.7 728.3 534.3 771.2 528C814 521.7 857 501.3 878.5 491.2L900 481L900 601L878.5 601C857 601 814 601 771.2 601C728.3 601 685.7 601 642.8 601C600 601 557 601 514.2 601C471.3 601 428.7 601 385.8 601C343 601 300 601 257.2 601C214.3 601 171.7 601 128.8 601C86 601 43 601 21.5 601L0 601Z" fill="#d53867"></path><path d="M0 544L21.5 544.3C43 544.7 86 545.3 128.8 542.7C171.7 540 214.3 534 257.2 536.2C300 538.3 343 548.7 385.8 552.8C428.7 557 471.3 555 514.2 551.3C557 547.7 600 542.3 642.8 541.2C685.7 540 728.3 543 771.2 548.3C814 553.7 857 561.3 878.5 565.2L900 569L900 601L878.5 601C857 601 814 601 771.2 601C728.3 601 685.7 601 642.8 601C600 601 557 601 514.2 601C471.3 601 428.7 601 385.8 601C343 601 300 601 257.2 601C214.3 601 171.7 601 128.8 601C86 601 43 601 21.5 601L0 601Z" fill="#c62368"></path></svg>